HIERARCHY
ROOT Hips
{
	OFFSET	0.00	0.00	0.00
	CHANNELS 6 Xposition Yposition Zposition Zrotation Xrotation Yrotation
	JOINT LeftUpLeg
	{
		OFFSET	 0.126116	-0.014019	-0.065224
		CHANNELS 3 Zrotation Xrotation Yrotation
		JOINT LeftLeg
		{
			OFFSET	 0.000000	 0.000000	 0.569914
			CHANNELS 3 Zrotation Xrotation Yrotation
			JOINT LeftFoot
			{
				OFFSET	 0.000000	 0.000000	 0.544423
				CHANNELS 3 Zrotation Xrotation Yrotation
				JOINT LeftToeBase
				{
					OFFSET	 0.000000	 0.000000	 0.207117
					CHANNELS 3 Zrotation Xrotation Yrotation
					End Site
					{
						OFFSET	 0.000000	 0.000000	 0.207117
					}
				}
			}
		}
	}
	JOINT RightUpLeg
	{
		OFFSET	-0.124023	-0.008373	-0.065224
		CHANNELS 3 Zrotation Xrotation Yrotation
		JOINT RightLeg
		{
			OFFSET	 0.000000	 0.000000	 0.570047
			CHANNELS 3 Zrotation Xrotation Yrotation
			JOINT RightFoot
			{
				OFFSET	 0.000000	 0.000000	 0.544354
				CHANNELS 3 Zrotation Xrotation Yrotation
				JOINT RightToeBase
				{
					OFFSET	 0.000000	 0.000000	 0.207540
					CHANNELS 3 Zrotation Xrotation Yrotation
					End Site
					{
						OFFSET	 0.000000	 0.000000	 0.207540
					}
				}
			}
		}
	}
	JOINT Spine
	{
		OFFSET	 0.000184	-0.007763	 0.117403
		CHANNELS 3 Zrotation Xrotation Yrotation
		JOINT Spine1
		{
			OFFSET	 0.000000	 0.000000	 0.137269
			CHANNELS 3 Zrotation Xrotation Yrotation
			JOINT Spine2
			{
				OFFSET	 0.000000	 0.000000	 0.156879
				CHANNELS 3 Zrotation Xrotation Yrotation
				JOINT LeftShoulder
				{
					OFFSET	 0.080501	-0.002496	 0.160144
					CHANNELS 3 Zrotation Xrotation Yrotation
					JOINT LeftArm
					{
						OFFSET	 0.000000	 0.000000	 0.164363
						CHANNELS 3 Zrotation Xrotation Yrotation
						JOINT LeftForeArm
						{
							OFFSET	 0.000000	 0.000000	 0.364576
							CHANNELS 3 Zrotation Xrotation Yrotation
							JOINT LeftHand
							{
								OFFSET	 0.000000	 0.000000	 0.360812
								CHANNELS 3 Zrotation Xrotation Yrotation
								JOINT LeftHandIndex1
								{
									OFFSET	 0.000000	 0.000000	 0.086006
									CHANNELS 3 Zrotation Xrotation Yrotation
									JOINT LeftHandIndex2
									{
										OFFSET	 0.000000	 0.000000	 0.047236
										CHANNELS 3 Zrotation Xrotation Yrotation
										JOINT LeftHandIndex3
										{
											OFFSET	-0.004284	-0.000551	 0.038166
											CHANNELS 3 Zrotation Xrotation Yrotation
											End Site
											{
												OFFSET	-0.004284	-0.000551	 0.038166
											}
										}
									}
								}
							}
						}
					}
				}
				JOINT Neck
				{
					OFFSET	 0.000000	 0.000000	 0.176489
					CHANNELS 3 Zrotation Xrotation Yrotation
					JOINT Head
					{
						OFFSET	 0.000000	-0.001747	 0.077940
						CHANNELS 3 Zrotation Xrotation Yrotation
						End Site
						{
							OFFSET	 0.000000	-0.001747	 0.077940
						}
					}
				}
				JOINT RightShoulder
				{
					OFFSET	-0.080363	 0.000306	 0.159706
					CHANNELS 3 Zrotation Xrotation Yrotation
					JOINT RightArm
					{
						OFFSET	 0.000000	 0.000000	 0.164196
						CHANNELS 3 Zrotation Xrotation Yrotation
						JOINT RightForeArm
						{
							OFFSET	 0.000000	 0.000000	 0.365611
							CHANNELS 3 Zrotation Xrotation Yrotation
							JOINT RightHand
							{
								OFFSET	 0.000000	 0.000000	 0.360648
								CHANNELS 3 Zrotation Xrotation Yrotation
								JOINT RightHandIndex1
								{
									OFFSET	 0.000000	 0.000000	 0.069977
									CHANNELS 3 Zrotation Xrotation Yrotation
									JOINT RightHandIndex2
									{
										OFFSET	 0.000000	 0.000000	 0.052305
										CHANNELS 3 Zrotation Xrotation Yrotation
										JOINT RightHandIndex3
										{
											OFFSET	 0.009002	-0.000782	 0.042196
											CHANNELS 3 Zrotation Xrotation Yrotation
											End Site
											{
												OFFSET	 0.009002	-0.000782	 0.042196
											}
										}
									}
								}
							}
						}
					}
				}
			}
		}
	}
}
MOTION
Frames:    7
Frame Time: 0.03333334
 6.968679	 3.622921	 1.157753	 178.749900	-2.021652	-0.094450	 6.297718	-1.139988	-178.189200	-2.690810	-34.676640	 1.099882	 64.524130	 89.972030	-63.703130	-2.376575	 30.349500	-0.041544	 1.743073	-30.622880	 179.543700	 18.563990	-70.792500	 21.950370	-179.526800	 88.886890	-173.043600	 2.378129	 29.761570	 0.029984	-8.368080	 4.869071	 1.723699	-13.058020	-0.606648	 0.456723	-14.282270	-2.670035	-1.281881	-91.790200	 78.241840	 178.868100	 35.526420	 63.159860	-47.865280	-8.893043	-4.294583	-29.954280	 0.627193	-31.237890	-6.275174	-3.812334	 37.924440	-2.927599	-2.450526	 36.184240	 0.754587	-1.378229	 35.397820	-2.634230	-0.328524	 4.073766	-2.025964	-3.152295	-12.127540	-2.278956	 89.790400	 78.586010	 179.501700	-41.758720	 71.397130	 43.530450	 1.742229	-7.609354	 26.096300	-7.482318	-32.014320	 11.311300	 6.437017	 35.671460	-0.771858	 2.830251	 35.756010	-7.813440	-2.350882	 35.473990	 5.254307
 6.966289	 3.688021	 1.154650	 179.016700	-1.522633	-0.739780	 5.989128	 4.465049	-177.110200	-3.320247	-28.990180	 0.940822	 11.304000	 89.580820	-10.692280	-2.373135	 30.974700	-0.055494	 2.104580	-33.731380	 179.768300	 11.586940	-61.210590	 14.260200	-169.573200	 89.158140	 177.423300	 2.379811	 29.426640	 0.022610	-8.438408	 4.689946	 2.467728	-13.200790	-0.600358	 0.397338	-14.300920	-2.660494	-1.282385	-91.765270	 78.725950	 178.762900	 34.845040	 61.670660	-49.241730	-8.651587	-4.505499	-31.932330	 0.817139	-29.921790	-6.193191	-3.812334	 37.924440	-2.927599	-2.450526	 36.184240	 0.754587	-1.378229	 35.397820	-2.634230	-0.368195	 4.255191	-2.574743	-3.040393	-12.525780	-2.129704	 89.779820	 78.106900	 179.450000	-41.610920	 71.588620	 42.615220	 1.982525	-7.709612	 27.090950	-7.479267	-30.721440	 11.160640	 6.437017	 35.671460	-0.771858	 2.830251	 35.756010	-7.813440	-2.350882	 35.473990	 5.254307
 6.965602	 3.759363	 1.152205	 179.231400	-0.867987	-1.020905	 7.047478	 12.336580	-176.925700	-3.732222	-18.758770	 1.391732	 4.726548	 86.785450	-2.675643	-2.358206	 33.344520	-0.109679	 2.648715	-35.299700	 179.705200	 7.553132	-49.949040	 9.437121	-144.696300	 89.579420	 152.887200	 2.388688	 27.428940	-0.020634	-8.345572	 4.320617	 2.754275	-13.139220	-0.672004	 0.384804	-14.208650	-2.605341	-1.267200	-91.755180	 78.902840	 178.748200	 34.380470	 60.584050	-50.393910	-8.646370	-4.507339	-32.986930	 0.810103	-28.504070	-6.104834	-3.812334	 37.924440	-2.927599	-2.450526	 36.184240	 0.754587	-1.378229	 35.397820	-2.634230	-0.259830	 4.399729	-2.990027	-2.941327	-12.735800	-2.084653	 89.775890	 77.931240	 179.456800	-41.435610	 71.922210	 42.138930	 2.083968	-7.665140	 26.810430	-7.848265	-29.309830	 10.998910	 6.437017	 35.671460	-0.771858	 2.830251	 35.756010	-7.813440	-2.350882	 35.473990	 5.254307
 6.966221	 3.830437	 1.148757	 179.661800	-0.808407	-1.283964	 8.269753	 19.331000	-176.997200	-3.950232	-11.617740	 1.586628	 3.706729	 84.146260	 0.213298	-2.324632	 37.447830	-0.209217	 3.244071	-35.827490	 179.781900	 4.216452	-41.043950	 5.976634	-164.844200	 89.344190	 172.223400	 2.376979	 29.985260	 0.034923	-8.307423	 4.149384	 2.874922	-13.044470	-0.761834	 0.415943	-14.026910	-2.584450	-1.248275	-91.753210	 78.928090	 178.717800	 34.524360	 60.250750	-51.584910	-8.670380	-4.499897	-32.824620	 0.997644	-27.064990	-6.024008	-3.812334	 37.924440	-2.927599	-2.450526	 36.184240	 0.754587	-1.378229	 35.397820	-2.634230	-0.122848	 4.327677	-3.233015	-2.759769	-12.615850	-1.859921	 89.774520	 77.903560	 179.398400	-41.166030	 72.386580	 41.980800	 1.941687	-7.477760	 25.156760	-8.641101	-27.902670	 10.840690	 6.437017	 35.671460	-0.771858	 2.830251	 35.756010	-7.813440	-2.350882	 35.473990	 5.254307
 6.969564	 3.905714	 1.146253	-179.655500	-0.938364	-1.263028	 8.429640	 23.047910	-178.253300	-2.987627	-11.596310	 1.738126	 4.794430	 83.247620	-0.094102	-2.278234	 41.650390	-0.320794	 3.104862	-34.987560	 179.533100	 2.929491	-37.324330	 4.564480	-179.773600	 89.126430	-173.622000	 2.368312	 31.536770	 0.069661	-8.430887	 4.257323	 2.543625	-13.040230	-0.813531	 0.363639	-13.888900	-2.621702	-1.240379	-91.761320	 78.778530	 178.666300	 35.433540	 60.648780	-52.683190	-8.552767	-4.494879	-31.386250	 1.419737	-25.600180	-5.950370	-3.812334	 37.924440	-2.927599	-2.450526	 36.184240	 0.754587	-1.378229	 35.397820	-2.634230	-0.112492	 4.175063	-3.229423	-2.608893	-12.292830	-1.409550	 89.777510	 78.050330	 179.294300	-40.131310	 73.026890	 40.961860	 1.861306	-7.218139	 23.140630	-9.560854	-26.491330	 10.686730	 6.437017	 35.671460	-0.771858	 2.830251	 35.756010	-7.813440	-2.350882	 35.473990	 5.254307
 6.975825	 3.998121	 1.143112	-179.020700	-1.195269	-1.082310	 9.011896	 27.168120	 179.696900	-1.668273	-11.562240	 1.954513	 5.732686	 79.354900	 0.276216	-2.189118	 47.418940	-0.496001	 2.692821	-33.226850	 178.800500	 4.691969	-39.266650	 5.760938	 8.037734	 88.817340	-0.566878	 2.380105	 29.366160	 0.021286	-8.384968	 3.607800	 2.053684	-12.878300	-0.801625	 0.187942	-13.693250	-2.573628	-1.217007	-91.764650	 78.712490	 178.595100	 36.843380	 61.902120	-52.920170	-8.436058	-4.361331	-28.548730	 1.924681	-24.009050	-5.873767	-3.812334	 37.924440	-2.927599	-2.450526	 36.184240	 0.754587	-1.378229	 35.397820	-2.634230	-0.036721	 4.298120	-3.275697	-2.457217	-11.883200	-0.621593	 89.780130	 78.131460	 179.353900	-37.960660	 73.716170	 38.224940	 1.701496	-6.863748	 20.938560	-10.520690	-24.948180	 10.525450	 6.437017	 35.671460	-0.771858	 2.830251	 35.756010	-7.813440	-2.350882	 35.473990	 5.254307
 6.982230	 4.089794	 1.142547	-178.185700	-1.847817	-0.786168	 9.877739	 30.600750	 177.384200	-1.237866	-11.555840	 1.992576	 5.649057	 71.089070	 1.131005	-2.121017	 50.710790	-0.611701	 1.773562	-31.176120	 177.692200	 7.073574	-43.211440	 7.471690	 6.524523	 85.444610	 1.536769	 2.393950	 25.987740	-0.051147	-8.383487	 3.106898	 1.332986	-12.673400	-0.758540	-0.010055	-13.416600	-2.443852	-1.177034	-91.776270	 78.525770	 178.535300	 38.158360	 63.816920	-51.842650	-8.368379	-4.246838	-25.753720	 2.529758	-22.549060	-5.803110	-3.812334	 37.924440	-2.927599	-2.450526	 36.184240	 0.754587	-1.378229	 35.397820	-2.634230	 0.078490	 4.506174	-3.104164	-2.261740	-11.318810	 0.017706	 89.785470	 78.327840	 179.362700	-35.443790	 74.109870	 34.923770	 1.531363	-6.480705	 19.117170	-11.211590	-23.512330	 10.382470	 6.437017	 35.671460	-0.771858	 2.830251	 35.756010	-7.813440	-2.350882	 35.473990	 5.254307
